<svg width="96" height="96" viewBox="0 0 96 96" fill="none" xmlns="http://www.w3.org/2000/svg">
<g filter="url(#filter0_d_14_2360)">
<path d="M9 25.5C9 16.3873 16.3873 9 25.5 9C34.6127 9 42 16.3873 42 25.5C42 34.6127 34.6127 42 25.5 42C16.3873 42 9 34.6127 9 25.5Z" fill="#F3DFB7"/>
<path fill-rule="evenodd" clip-rule="evenodd" d="M25.5 45C14.7304 45 6 36.2696 6 25.5C6 14.7304 14.7304 6 25.5 6C36.2696 6 45 14.7304 45 25.5C45 36.2696 36.2696 45 25.5 45ZM25.5 9C16.3873 9 9 16.3873 9 25.5C9 34.6127 16.3873 42 25.5 42C34.6127 42 42 34.6127 42 25.5C42 16.3873 34.6127 9 25.5 9Z" fill="#826E47"/>
<path fill-rule="evenodd" clip-rule="evenodd" d="M25.5 9C16.3873 9 9 16.3873 9 25.5C9 30.438 11.1692 34.8694 14.6067 37.8933C12.0504 34.9872 10.5 31.1747 10.5 27C10.5 17.8873 17.8873 10.5 27 10.5C31.1747 10.5 34.9872 12.0504 37.8933 14.6067C34.8694 11.1692 30.438 9 25.5 9Z" fill="#FFF3DC"/>
<path fill-rule="evenodd" clip-rule="evenodd" d="M24 33C24 33.8284 24.6716 34.5 25.5 34.5C26.3284 34.5 27 33.8284 27 33V27H33C33.8284 27 34.5 26.3284 34.5 25.5C34.5 24.6716 33.8284 24 33 24H27V18C27 17.1716 26.3284 16.5 25.5 16.5C24.6716 16.5 24 17.1716 24 18V24H18C17.1716 24 16.5 24.6716 16.5 25.5C16.5 26.3284 17.1716 27 18 27H24V33Z" fill="#F3DFB7"/>
<path fill-rule="evenodd" clip-rule="evenodd" d="M25.5 37.5C23.0147 37.5 21 35.4853 21 33V30H18C15.5147 30 13.5 27.9853 13.5 25.5C13.5 23.0147 15.5147 21 18 21H21V18C21 15.5147 23.0147 13.5 25.5 13.5C27.9853 13.5 30 15.5147 30 18V21H33C35.4853 21 37.5 23.0147 37.5 25.5C37.5 27.9853 35.4853 30 33 30H30V33C30 35.4853 27.9853 37.5 25.5 37.5ZM25.5 34.5C24.6716 34.5 24 33.8284 24 33V27H18C17.1716 27 16.5 26.3284 16.5 25.5C16.5 24.6716 17.1716 24 18 24H24V18C24 17.1716 24.6716 16.5 25.5 16.5C26.3284 16.5 27 17.1716 27 18V24H33C33.8284 24 34.5 24.6716 34.5 25.5C34.5 26.3284 33.8284 27 33 27H27V33C27 33.8284 26.3284 34.5 25.5 34.5Z" fill="#826E47"/>
<path d="M25.5 34.5C24.6716 34.5 24 33.8284 24 33V28.5H25.5V34.5Z" fill="#FFF3DC"/>
<path d="M34.5 25.5C34.5 24.6716 33.8284 24 33 24H28.5V25.5H34.5Z" fill="#FFF3DC"/>
<path d="M27 18C27 17.1716 26.3284 16.5 25.5 16.5C24.6716 16.5 24 17.1716 24 18V24H18C17.1716 24 16.5 24.6716 16.5 25.5C16.5 26.3284 17.1716 27 18 27C18 26.1716 18.6716 25.5 19.5 25.5H25.5V19.5C25.5 18.6716 26.1716 18 27 18Z" fill="#FFF3DC"/>
<path d="M9 70.5C9 61.3873 16.3873 54 25.5 54V54C34.6127 54 42 61.3873 42 70.5V70.5C42 79.6127 34.6127 87 25.5 87V87C16.3873 87 9 79.6127 9 70.5V70.5Z" fill="#686666"/>
<path fill-rule="evenodd" clip-rule="evenodd" d="M25.5 90C14.7304 90 6 81.2696 6 70.5C6 59.7304 14.7304 51 25.5 51C36.2696 51 45 59.7304 45 70.5C45 81.2696 36.2696 90 25.5 90ZM25.5 54C16.3873 54 9 61.3873 9 70.5C9 79.6127 16.3873 87 25.5 87C34.6127 87 42 79.6127 42 70.5C42 61.3873 34.6127 54 25.5 54Z" fill="#433D3D"/>
<path fill-rule="evenodd" clip-rule="evenodd" d="M25.5 54C16.3873 54 9 61.3873 9 70.5C9 75.438 11.1692 79.8694 14.6067 82.8933C12.0504 79.9872 10.5 76.1747 10.5 72C10.5 62.8873 17.8873 55.5 27 55.5C31.1747 55.5 34.9872 57.0504 37.8933 59.6067C34.8694 56.1692 30.438 54 25.5 54Z" fill="#999494"/>
<path fill-rule="evenodd" clip-rule="evenodd" d="M29.7425 76.864C30.3283 77.4497 31.2781 77.4497 31.8639 76.864C32.4496 76.2782 32.4496 75.3284 31.8639 74.7426L27.6212 70.5L31.8639 66.2574C32.4496 65.6716 32.4496 64.7218 31.8639 64.136C31.2781 63.5503 30.3283 63.5503 29.7425 64.136L25.4999 68.3787L21.2573 64.136C20.6715 63.5503 19.7217 63.5503 19.1359 64.136C18.5501 64.7218 18.5501 65.6716 19.1359 66.2574L23.3786 70.5L19.1359 74.7426C18.5501 75.3284 18.5501 76.2782 19.1359 76.864C19.7217 77.4497 20.6715 77.4497 21.2573 76.864L25.4999 72.6213L29.7425 76.864Z" fill="#686666"/>
<path fill-rule="evenodd" clip-rule="evenodd" d="M33.9851 78.9853C32.2278 80.7426 29.3785 80.7426 27.6212 78.9853L25.4999 76.864L23.3785 78.9853C21.6212 80.7426 18.7719 80.7426 17.0146 78.9853C15.2572 77.2279 15.2572 74.3787 17.0146 72.6213L19.1359 70.5L17.0146 68.3787C15.2572 66.6213 15.2572 63.7721 17.0146 62.0147C18.7719 60.2574 21.6212 60.2574 23.3785 62.0147L25.4999 64.136L27.6212 62.0147C29.3785 60.2574 32.2278 60.2574 33.9851 62.0147C35.7425 63.7721 35.7425 66.6213 33.9851 68.3787L31.8638 70.5L33.9851 72.6213C35.7425 74.3787 35.7425 77.2279 33.9851 78.9853ZM31.8638 76.864C31.278 77.4497 30.3283 77.4497 29.7425 76.864L25.4999 72.6213L21.2572 76.864C20.6714 77.4497 19.7217 77.4497 19.1359 76.864C18.5501 76.2782 18.5501 75.3284 19.1359 74.7426L23.3785 70.5L19.1359 66.2574C18.5501 65.6716 18.5501 64.7218 19.1359 64.136C19.7217 63.5503 20.6714 63.5503 21.2572 64.136L25.4999 68.3787L29.7425 64.136C30.3283 63.5503 31.278 63.5503 31.8638 64.136C32.4496 64.7218 32.4496 65.6716 31.8638 66.2574L27.6212 70.5L31.8638 74.7426C32.4496 75.3284 32.4496 76.2782 31.8638 76.864Z" fill="#433D3D"/>
<path fill-rule="evenodd" clip-rule="evenodd" d="M20.1968 77.3033C20.1968 76.9194 20.3432 76.5355 20.6361 76.2427L24.8788 72L23.3788 70.5L19.1361 74.7427C18.5503 75.3284 18.5503 76.2782 19.1361 76.864C19.429 77.1569 19.8129 77.3033 20.1968 77.3033ZM20.6361 67.7574C20.0503 67.1716 20.0503 66.2218 20.6361 65.6361C21.2219 65.0503 22.1717 65.0503 22.7574 65.6361L21.2574 64.1361C20.6717 63.5503 19.7219 63.5503 19.1361 64.1361C18.5503 64.7218 18.5503 65.6716 19.1361 66.2574L20.6361 67.7574ZM25.5001 68.3787L27.0001 69.8787L31.2427 65.6361C31.5356 65.3432 31.9195 65.1967 32.3034 65.1967C32.3034 64.8128 32.1569 64.4289 31.864 64.1361C31.2783 63.5503 30.3285 63.5503 29.7427 64.1361L25.5001 68.3787Z" fill="#999494"/>
<path d="M54 25.5C54 16.3873 61.3873 9 70.5 9V9C79.6127 9 87 16.3873 87 25.5V25.5C87 34.6127 79.6127 42 70.5 42V42C61.3873 42 54 34.6127 54 25.5V25.5Z" fill="#686666"/>
<path fill-rule="evenodd" clip-rule="evenodd" d="M70.5 45C59.7304 45 51 36.2696 51 25.5C51 14.7304 59.7304 6 70.5 6C81.2696 6 90 14.7304 90 25.5C90 36.2696 81.2696 45 70.5 45ZM70.5 9C61.3873 9 54 16.3873 54 25.5C54 34.6127 61.3873 42 70.5 42C79.6127 42 87 34.6127 87 25.5C87 16.3873 79.6127 9 70.5 9Z" fill="#433D3D"/>
<path fill-rule="evenodd" clip-rule="evenodd" d="M70.5 9C61.3873 9 54 16.3873 54 25.5C54 30.438 56.1692 34.8694 59.6067 37.8933C57.0504 34.9872 55.5 31.1747 55.5 27C55.5 17.8873 62.8873 10.5 72 10.5C76.1747 10.5 79.9872 12.0504 82.8933 14.6067C79.8694 11.1692 75.438 9 70.5 9Z" fill="#999494"/>
<path d="M61.5 25.5C61.5 24.6716 62.1716 24 63 24H78C78.8284 24 79.5 24.6716 79.5 25.5V25.5C79.5 26.3284 78.8284 27 78 27H63C62.1716 27 61.5 26.3284 61.5 25.5V25.5Z" fill="#686666"/>
<path fill-rule="evenodd" clip-rule="evenodd" d="M63 21H78C80.4853 21 82.5 23.0147 82.5 25.5C82.5 27.9853 80.4853 30 78 30H63C60.5147 30 58.5 27.9853 58.5 25.5C58.5 23.0147 60.5147 21 63 21ZM63 24C62.1716 24 61.5 24.6716 61.5 25.5C61.5 26.3284 62.1716 27 63 27H78C78.8284 27 79.5 26.3284 79.5 25.5C79.5 24.6716 78.8284 24 78 24H63Z" fill="#433D3D"/>
<path fill-rule="evenodd" clip-rule="evenodd" d="M63 24C62.1716 24 61.5 24.6716 61.5 25.5C61.5 26.3284 62.1716 27 63 27C63 26.1716 63.6716 25.5 64.5 25.5H79.5C79.5 24.6716 78.8284 24 78 24H63Z" fill="#999494"/>
<path d="M54 70.5C54 61.3873 61.3873 54 70.5 54V54C79.6127 54 87 61.3873 87 70.5V70.5C87 79.6127 79.6127 87 70.5 87V87C61.3873 87 54 79.6127 54 70.5V70.5Z" fill="#F55B54"/>
<path fill-rule="evenodd" clip-rule="evenodd" d="M70.5 90C59.7304 90 51 81.2696 51 70.5C51 59.7304 59.7304 51 70.5 51C81.2696 51 90 59.7304 90 70.5C90 81.2696 81.2696 90 70.5 90ZM70.5 54C61.3873 54 54 61.3873 54 70.5C54 79.6127 61.3873 87 70.5 87C79.6127 87 87 79.6127 87 70.5C87 61.3873 79.6127 54 70.5 54Z" fill="#A83C37"/>
<path fill-rule="evenodd" clip-rule="evenodd" d="M70.5 54C61.3873 54 54 61.3873 54 70.5C54 75.438 56.1692 79.8694 59.6067 82.8933C57.0504 79.9872 55.5 76.1747 55.5 72C55.5 62.8873 62.8873 55.5 72 55.5C76.1747 55.5 79.9872 57.0504 82.8933 59.6067C79.8694 56.1692 75.438 54 70.5 54Z" fill="#FF8B86"/>
<path d="M61.5 76.5C61.5 75.6716 62.1716 75 63 75H78C78.8284 75 79.5 75.6716 79.5 76.5V76.5C79.5 77.3284 78.8284 78 78 78H63C62.1716 78 61.5 77.3284 61.5 76.5V76.5Z" fill="#F55B54"/>
<path fill-rule="evenodd" clip-rule="evenodd" d="M63 72H78C80.4853 72 82.5 74.0147 82.5 76.5C82.5 78.9853 80.4853 81 78 81H63C60.5147 81 58.5 78.9853 58.5 76.5C58.5 74.0147 60.5147 72 63 72ZM63 75C62.1716 75 61.5 75.6716 61.5 76.5C61.5 77.3284 62.1716 78 63 78H78C78.8284 78 79.5 77.3284 79.5 76.5C79.5 75.6716 78.8284 75 78 75H63Z" fill="#A83C37"/>
<path d="M61.5 64.5C61.5 63.6716 62.1716 63 63 63H78C78.8284 63 79.5 63.6716 79.5 64.5V64.5C79.5 65.3284 78.8284 66 78 66H63C62.1716 66 61.5 65.3284 61.5 64.5V64.5Z" fill="#F55B54"/>
<path fill-rule="evenodd" clip-rule="evenodd" d="M63 60H78C80.4853 60 82.5 62.0147 82.5 64.5C82.5 66.9853 80.4853 69 78 69H63C60.5147 69 58.5 66.9853 58.5 64.5C58.5 62.0147 60.5147 60 63 60ZM63 63C62.1716 63 61.5 63.6716 61.5 64.5C61.5 65.3284 62.1716 66 63 66H78C78.8284 66 79.5 65.3284 79.5 64.5C79.5 63.6716 78.8284 63 78 63H63Z" fill="#A83C37"/>
<path fill-rule="evenodd" clip-rule="evenodd" d="M63 75C62.1716 75 61.5 75.6716 61.5 76.5C61.5 77.3284 62.1716 78 63 78C63 77.1716 63.6716 76.5 64.5 76.5H79.5C79.5 75.6716 78.8284 75 78 75H63Z" fill="#FF8B86"/>
<path fill-rule="evenodd" clip-rule="evenodd" d="M63 63C62.1716 63 61.5 63.6716 61.5 64.5C61.5 65.3284 62.1716 66 63 66C63 65.1716 63.6716 64.5 64.5 64.5H79.5C79.5 63.6716 78.8284 63 78 63H63Z" fill="#FF8B86"/>
<path d="M18 16.5C18 17.3284 17.3284 18 16.5 18C15.6716 18 15 17.3284 15 16.5C15 15.6716 15.6716 15 16.5 15C17.3284 15 18 15.6716 18 16.5Z" fill="white"/>
</g>
<defs>
<filter id="filter0_d_14_2360" x="0" y="0" width="98" height="98" filterUnits="userSpaceOnUse" color-interpolation-filters="sRGB">
<feFlood flood-opacity="0" result="BackgroundImageFix"/>
<feColorMatrix in="SourceAlpha" type="matrix" values="0 0 0 0 0 0 0 0 0 0 0 0 0 0 0 0 0 0 127 0" result="hardAlpha"/>
<feOffset dx="2" dy="2"/>
<feColorMatrix type="matrix" values="0 0 0 0 0.682353 0 0 0 0 0.819608 0 0 0 0 0.952941 0 0 0 1 0"/>
<feBlend mode="normal" in2="BackgroundImageFix" result="effect1_dropShadow_14_2360"/>
<feBlend mode="normal" in="SourceGraphic" in2="effect1_dropShadow_14_2360" result="shape"/>
</filter>
</defs>
</svg>
