<svg width="33" height="32" viewBox="0 0 33 32" fill="none" xmlns="http://www.w3.org/2000/svg">
<g clip-path="url(#clip0_5_68)">
<path d="M24.4675 18.6973C22.1147 22.0444 17.2661 22.7073 13.6627 20.1745C10.0594 17.6416 9.04128 12.855 11.394 9.50782C11.5754 9.24976 11.7732 9.00319 11.9901 8.78144C12.736 11.4717 14.4533 13.9262 16.8637 15.6205C19.2742 17.3148 22.1652 18.0996 24.9491 17.8905C24.8139 18.1697 24.6489 18.4392 24.4675 18.6973ZM26.1016 19.846C27.0726 18.4646 27.5764 16.8796 27.6661 15.2757C24.6574 16.5514 20.954 16.2276 17.9308 14.1026C14.9075 11.9775 13.3488 8.60253 13.5305 5.33954C12.0517 5.96706 10.7308 6.97777 9.75986 8.35913C6.81492 12.5488 8.08538 18.5221 12.5957 21.6925C17.106 24.8628 23.1567 24.0356 26.1016 19.846Z" fill="#E2E2E2"/>
</g>
<defs>
<clipPath id="clip0_5_68">
<rect width="22.2657" height="23.97" fill="white" transform="translate(32.8041 13.7842) rotate(125.104)"/>
</clipPath>
</defs>
</svg>
