<svg width="15" height="15" viewBox="0 0 15 15" fill="none" xmlns="http://www.w3.org/2000/svg">
<path d="M0.46875 6.09375H14.5312V8.90625H0.46875V6.09375Z" fill="#E96668"/>
<path d="M7.5 3.98438C8.47081 3.98438 9.25781 3.19738 9.25781 2.22656C9.25781 1.25575 8.47081 0.46875 7.5 0.46875C6.52919 0.46875 5.74219 1.25575 5.74219 2.22656C5.74219 3.19738 6.52919 3.98438 7.5 3.98438Z" fill="#E96668"/>
<path d="M7.5 14.5312C8.47081 14.5312 9.25781 13.7443 9.25781 12.7734C9.25781 11.8026 8.47081 11.0156 7.5 11.0156C6.52919 11.0156 5.74219 11.8026 5.74219 12.7734C5.74219 13.7443 6.52919 14.5312 7.5 14.5312Z" fill="#E96668"/>
</svg>
