<svg width="28" height="28" viewBox="0 0 28 28" fill="none" xmlns="http://www.w3.org/2000/svg">
<path d="M14 4.08333C14.232 4.08333 14.4546 4.17552 14.6187 4.33961C14.7828 4.5037 14.875 4.72626 14.875 4.95833V6.125C14.875 6.35706 14.7828 6.57962 14.6187 6.74371C14.4546 6.90781 14.232 7 14 7C13.7679 7 13.5454 6.90781 13.3813 6.74371C13.2172 6.57962 13.125 6.35706 13.125 6.125V4.95833C13.125 4.72626 13.2172 4.5037 13.3813 4.33961C13.5454 4.17552 13.7679 4.08333 14 4.08333ZM14 19.8333C15.5471 19.8333 17.0308 19.2187 18.1248 18.1248C19.2187 17.0308 19.8333 15.5471 19.8333 14C19.8333 12.4529 19.2187 10.9692 18.1248 9.87521C17.0308 8.78124 15.5471 8.16666 14 8.16666C12.4529 8.16666 10.9692 8.78124 9.87519 9.87521C8.78123 10.9692 8.16665 12.4529 8.16665 14C8.16665 15.5471 8.78123 17.0308 9.87519 18.1248C10.9692 19.2187 12.4529 19.8333 14 19.8333ZM14 18.0833C13.4637 18.0833 12.9328 17.9777 12.4374 17.7725C11.9419 17.5673 11.4918 17.2665 11.1126 16.8873C10.7335 16.5082 10.4327 16.058 10.2275 15.5626C10.0223 15.0672 9.91665 14.5362 9.91665 14C9.91665 13.4638 10.0223 12.9328 10.2275 12.4374C10.4327 11.942 10.7335 11.4918 11.1126 11.1126C11.4918 10.7335 11.9419 10.4327 12.4374 10.2275C12.9328 10.0223 13.4637 9.91666 14 9.91666C15.0829 9.91666 16.1216 10.3469 16.8873 11.1126C17.6531 11.8784 18.0833 12.917 18.0833 14C18.0833 15.083 17.6531 16.1216 16.8873 16.8873C16.1216 17.6531 15.0829 18.0833 14 18.0833ZM23.0416 14.875C23.2737 14.875 23.4963 14.7828 23.6604 14.6187C23.8245 14.4546 23.9166 14.2321 23.9166 14C23.9166 13.7679 23.8245 13.5454 23.6604 13.3813C23.4963 13.2172 23.2737 13.125 23.0416 13.125H21.875C21.6429 13.125 21.4204 13.2172 21.2563 13.3813C21.0922 13.5454 21 13.7679 21 14C21 14.2321 21.0922 14.4546 21.2563 14.6187C21.4204 14.7828 21.6429 14.875 21.875 14.875H23.0416ZM14 21C14.232 21 14.4546 21.0922 14.6187 21.2563C14.7828 21.4204 14.875 21.6429 14.875 21.875V23.0417C14.875 23.2737 14.7828 23.4963 14.6187 23.6604C14.4546 23.8245 14.232 23.9167 14 23.9167C13.7679 23.9167 13.5454 23.8245 13.3813 23.6604C13.2172 23.4963 13.125 23.2737 13.125 23.0417V21.875C13.125 21.6429 13.2172 21.4204 13.3813 21.2563C13.5454 21.0922 13.7679 21 14 21ZM6.12498 14.875C6.35704 14.875 6.5796 14.7828 6.7437 14.6187C6.90779 14.4546 6.99998 14.2321 6.99998 14C6.99998 13.7679 6.90779 13.5454 6.7437 13.3813C6.5796 13.2172 6.35704 13.125 6.12498 13.125H4.95831C4.72625 13.125 4.50369 13.2172 4.33959 13.3813C4.1755 13.5454 4.08331 13.7679 4.08331 14C4.08331 14.2321 4.1755 14.4546 4.33959 14.6187C4.50369 14.7828 4.72625 14.875 4.95831 14.875H6.12498ZM7.25665 7.25666C7.42071 7.0928 7.6431 7.00077 7.87498 7.00077C8.10686 7.00077 8.32925 7.0928 8.49331 7.25666L9.07665 7.84C9.23121 8.00587 9.31535 8.22525 9.31135 8.45194C9.30735 8.67862 9.21552 8.89491 9.05521 9.05522C8.89489 9.21554 8.67861 9.30737 8.45192 9.31137C8.22524 9.31537 8.00585 9.23122 7.83998 9.07666L7.25665 8.49333C7.09279 8.32927 7.00075 8.10687 7.00075 7.875C7.00075 7.64312 7.09279 7.42072 7.25665 7.25666ZM8.49331 20.7433C8.32744 20.8979 8.10806 20.982 7.88137 20.978C7.65469 20.974 7.4384 20.8822 7.27809 20.7219C7.11777 20.5616 7.02594 20.3453 7.02194 20.1186C7.01794 19.8919 7.10209 19.6725 7.25665 19.5067L7.83998 18.9233C8.00585 18.7688 8.22524 18.6846 8.45192 18.6886C8.67861 18.6926 8.89489 18.7845 9.05521 18.9448C9.21552 19.1051 9.30735 19.3214 9.31135 19.5481C9.31535 19.7747 9.23121 19.9941 9.07665 20.16L8.49331 20.7433ZM20.7433 7.25666C20.5793 7.0928 20.3569 7.00077 20.125 7.00077C19.8931 7.00077 19.6707 7.0928 19.5066 7.25666L18.9233 7.84C18.7688 8.00587 18.6846 8.22525 18.6886 8.45194C18.6926 8.67862 18.7844 8.89491 18.9448 9.05522C19.1051 9.21554 19.3214 9.30737 19.548 9.31137C19.7747 9.31537 19.9941 9.23122 20.16 9.07666L20.7433 8.49333C20.9072 8.32927 20.9992 8.10687 20.9992 7.875C20.9992 7.64312 20.9072 7.42072 20.7433 7.25666ZM19.5066 20.7433C19.5868 20.8293 19.6834 20.8983 19.7907 20.9461C19.898 20.9939 20.0139 21.0196 20.1314 21.0217C20.2489 21.0238 20.3656 21.0021 20.4745 20.9581C20.5835 20.9141 20.6824 20.8486 20.7655 20.7655C20.8486 20.6825 20.9141 20.5835 20.9581 20.4745C21.0021 20.3656 21.0237 20.2489 21.0217 20.1314C21.0196 20.0139 20.9939 19.898 20.9461 19.7907C20.8982 19.6834 20.8293 19.5868 20.7433 19.5067L20.16 18.9233C20.0799 18.8374 19.9833 18.7684 19.8759 18.7206C19.7686 18.6728 19.6527 18.647 19.5353 18.645C19.4178 18.6429 19.3011 18.6645 19.1921 18.7085C19.0832 18.7525 18.9842 18.818 18.9011 18.9011C18.818 18.9842 18.7525 19.0832 18.7085 19.1921C18.6645 19.3011 18.6429 19.4178 18.645 19.5353C18.647 19.6528 18.6727 19.7686 18.7206 19.876C18.7684 19.9833 18.8373 20.0799 18.9233 20.16L19.5066 20.7433Z" fill="#3D4149"/>
</svg>
