<svg width="16" height="17" viewBox="0 0 16 17" fill="none" xmlns="http://www.w3.org/2000/svg">
<path d="M4.31311 0.248C5.29578 0.248 6.09511 0.556 6.71111 1.172C7.32711 1.77333 7.63511 2.59467 7.63511 3.636C7.63511 4.67733 7.32711 5.49867 6.71111 6.1C6.09511 6.70133 5.29578 7.002 4.31311 7.002C3.33044 7.002 2.52378 6.70133 1.89311 6.1C1.27711 5.49867 0.969109 4.67733 0.969109 3.636C0.969109 2.59467 1.27711 1.77333 1.89311 1.172C2.52378 0.556 3.33044 0.248 4.31311 0.248ZM13.6191 0.446L4.84111 16H2.37711L11.1771 0.446H13.6191ZM2.68511 3.636C2.68511 4.19333 2.83178 4.64067 3.12511 4.978C3.41844 5.30067 3.80711 5.462 4.29111 5.462C4.77511 5.462 5.16378 5.29333 5.45711 4.956C5.76511 4.61867 5.91911 4.17867 5.91911 3.636C5.91911 3.07867 5.76511 2.63133 5.45711 2.294C5.16378 1.95667 4.77511 1.788 4.29111 1.788C3.80711 1.788 3.41844 1.95667 3.12511 2.294C2.83178 2.63133 2.68511 3.07867 2.68511 3.636ZM11.7051 9.444C12.6878 9.444 13.4871 9.74467 14.1031 10.346C14.7338 10.9473 15.0491 11.7687 15.0491 12.81C15.0491 13.8513 14.7338 14.68 14.1031 15.296C13.4871 15.8973 12.6878 16.198 11.7051 16.198C10.7371 16.198 9.93778 15.8973 9.30711 15.296C8.69111 14.68 8.38311 13.8513 8.38311 12.81C8.38311 11.7833 8.69111 10.9693 9.30711 10.368C9.93778 9.752 10.7371 9.444 11.7051 9.444ZM10.0991 12.81C10.0991 13.3673 10.2458 13.8147 10.5391 14.152C10.8324 14.4893 11.2211 14.658 11.7051 14.658C12.1891 14.658 12.5778 14.4893 12.8711 14.152C13.1791 13.8147 13.3331 13.3673 13.3331 12.81C13.3331 12.2673 13.1791 11.8273 12.8711 11.49C12.5778 11.1527 12.1891 10.984 11.7051 10.984C11.2211 10.984 10.8324 11.1527 10.5391 11.49C10.2458 11.8273 10.0991 12.2673 10.0991 12.81Z" fill="#35D5B7"/>
</svg>
