<svg width="36" height="36" viewBox="0 0 36 36" fill="none" xmlns="http://www.w3.org/2000/svg">
<g clip-path="url(#clip0_5_104)">
<path d="M10.4846 23.3565C10.6961 23.1592 10.9769 23.0535 11.266 23.0625C11.5551 23.0714 11.8289 23.1943 12.0277 23.4042C13.1807 24.6059 14.687 25.4084 16.3275 25.6948C17.968 25.9813 19.6571 25.7369 21.1491 24.997C23.0151 24.1248 24.4591 22.5482 25.1644 20.6129C25.8697 18.6776 25.7788 16.5416 24.9115 14.6733C23.9922 12.83 22.3795 11.4265 20.4269 10.7705C18.4743 10.1146 16.3413 10.2597 14.4956 11.1741C12.8175 11.9768 11.4738 13.3422 10.698 15.0329L12.6695 13.6461C12.7877 13.5632 12.9212 13.5045 13.0622 13.4733C13.2032 13.4421 13.349 13.4391 13.4912 13.4645C13.6334 13.4899 13.7692 13.5431 13.8907 13.6211C14.0122 13.6991 14.1172 13.8004 14.1994 13.9191C14.2824 14.0374 14.3411 14.1708 14.3723 14.3118C14.4034 14.4529 14.4064 14.5987 14.3811 14.7408C14.3557 14.883 14.3025 15.0188 14.2245 15.1403C14.1464 15.2619 14.0452 15.3668 13.9265 15.449L10.0728 18.1552L9.9049 18.236C9.79035 18.291 9.66711 18.3256 9.54069 18.3384C9.49791 18.3421 9.45482 18.3381 9.41344 18.3267C9.32997 18.3344 9.24582 18.3298 9.16369 18.3131L9.02255 18.2473C8.99879 18.1979 8.89091 18.2012 8.8229 18.1609C8.75489 18.1207 8.77538 18.0622 8.707 18.0465C8.65204 18.0021 8.60035 17.9538 8.55234 17.902L5.91082 14.309C5.82378 14.1912 5.76079 14.0574 5.72545 13.9153C5.69011 13.7732 5.68311 13.6254 5.70486 13.4806C5.72661 13.3357 5.77667 13.1966 5.8522 13.0711C5.92772 12.9456 6.02723 12.8362 6.14503 12.7491C6.26283 12.6621 6.39663 12.5991 6.53878 12.5638C6.68092 12.5284 6.82864 12.5214 6.97349 12.5432C7.26603 12.5871 7.52914 12.7454 7.70494 12.9833L8.66063 14.2867C9.624 12.0587 11.3581 10.2526 13.5451 9.19939C15.9145 8.03294 18.6499 7.85411 21.1511 8.70213C23.6522 9.55016 25.7148 11.3558 26.8862 13.7228C28.0055 16.1148 28.1302 18.8533 27.2328 21.3371C26.3354 23.821 24.4893 25.8474 22.0996 26.9717C20.1854 27.9296 18.0142 28.2476 15.9058 27.8788C13.7973 27.5101 11.863 26.4741 10.3875 24.9234C10.2892 24.815 10.2136 24.688 10.1652 24.55C10.1168 24.4119 10.0965 24.2655 10.1055 24.1195C10.1146 23.9734 10.1528 23.8307 10.2179 23.6996C10.283 23.5686 10.3737 23.4519 10.4846 23.3565Z" fill="black"/>
</g>
<defs>
<clipPath id="clip0_5_104">
<rect width="26.2987" height="26.2987" fill="white" transform="matrix(-0.901052 0.433711 0.433711 0.901052 24.1453 0.448792)"/>
</clipPath>
</defs>
</svg>
