<svg xmlns="http://www.w3.org/2000/svg" viewBox="0 0 93 30" style="enable-background:new 0 0 93 30" xml:space="preserve"><g><defs><filter id="a" filterUnits="userSpaceOnUse" x="0" y="0" width="93" height="30"><feColorMatrix values="1 0 0 0 0 0 1 0 0 0 0 0 1 0 0 0 0 0 1 0"/></filter></defs><mask maskUnits="userSpaceOnUse" x="0" y="0" width="93" height="30" id="b"><g style="filter:url(#a)"><path d="M0 0h93v30H0V0z" style="fill-rule:evenodd;clip-rule:evenodd;fill:#fff"/></g></mask><path d="M14.2.4h5.2v18.8C19.4 25.7 15 30 8.2 30 5 30 2.1 29.1 0 27.4l1.1-4.1c2.1 1.6 4.3 2.2 6.9 2.2 3.7 0 6.1-2.5 6.1-6.4v-.4c-1.5 1.8-3.7 2.8-6.2 2.8-4.7 0-7.8-3.2-7.8-8.1V.4h5.2v12.2c0 2.7 1.8 4.4 4.5 4.4 2.6 0 4.4-1.8 4.4-4.4V.4zM34 21.5c-6.6 0-11-4.3-11-10.8C23 4.3 27.4 0 34 0s11 4.3 11 10.7c0 6.5-4.5 10.8-11 10.8zm0-4.5c3.4 0 5.6-2.5 5.6-6.3S37.3 4.5 34 4.5c-3.4 0-5.6 2.5-5.6 6.3S30.6 17 34 17zM62.3.4h5.2v18.8C67.5 25.7 63 30 56.2 30c-3.2 0-6.1-.9-8.2-2.6l1.1-4.1c2.1 1.6 4.3 2.2 6.9 2.2 3.7 0 6.1-2.5 6.1-6.4v-.4c-1.5 1.8-3.7 2.8-6.2 2.8-4.7 0-7.8-3.2-7.8-8.1V.4h5.2v12.2c0 2.7 1.8 4.4 4.5 4.4 2.6 0 4.4-1.8 4.4-4.4L62.3.4zM82 21.5c-6.6 0-11-4.3-11-10.8C71 4.3 75.4 0 82 0s11 4.3 11 10.7c0 6.5-4.4 10.8-11 10.8zm0-4.5c3.4 0 5.6-2.5 5.6-6.3S85.4 4.5 82 4.5c-3.4 0-5.6 2.5-5.6 6.3S78.6 17 82 17z" style="mask:url(#b);fill-rule:evenodd;clip-rule:evenodd;fill:#1b1c3c"/></g></svg>